# This file uses centimeters as units for non-parametric coordinates.

mtllib o2.mtl
g default
v -0.500000 -0.500000 0.500000
v 0.392263 -0.500000 0.500000
v -0.500000 2.651341 0.500000
v 0.392263 2.651341 0.500000
v -0.500000 2.651341 -0.500000
v 0.392263 2.651341 -0.500000
v -0.500000 -0.500000 -0.500000
v 0.392263 -0.500000 -0.500000
v -0.500000 3.279635 0.500000
v 0.392263 3.279635 0.500000
v 0.392263 3.279635 -0.500000
v -0.500000 3.279635 -0.500000
v -0.500000 -1.191617 -0.500000
v 0.392263 -1.191617 -0.500000
v 0.392263 -1.191617 0.500000
v -0.500000 -1.191617 0.500000
v 2.797168 2.651341 0.500000
v 2.797168 2.651341 -0.500000
v 2.797168 3.279635 -0.500000
v 2.797168 3.279635 0.500000
v 2.797168 -0.500000 -0.500000
v 2.797168 -0.500000 0.500000
v 2.797168 -1.191617 0.500000
v 2.797168 -1.191617 -0.500000
v 3.677208 2.651341 0.500000
v 3.677208 2.651341 -0.500000
v 3.677208 3.279635 -0.500000
v 3.677208 3.279635 0.500000
v 3.677208 -0.500000 -0.500000
v 3.677208 -0.500000 0.500000
v 3.677208 -1.191617 0.500000
v 3.677208 -1.191617 -0.500000
vt 0.375000 0.000000
vt 0.625000 0.000000
vt 0.375000 0.250000
vt 0.625000 0.250000
vt 0.375000 0.500000
vt 0.625000 0.500000
vt 0.375000 0.750000
vt 0.625000 0.750000
vt 0.375000 1.000000
vt 0.625000 1.000000
vt 0.875000 0.000000
vt 0.875000 0.250000
vt 0.125000 0.000000
vt 0.125000 0.250000
vt 0.375000 0.250000
vt 0.625000 0.250000
vt 0.625000 0.500000
vt 0.375000 0.500000
vt 0.375000 0.750000
vt 0.625000 0.750000
vt 0.625000 1.000000
vt 0.375000 1.000000
vt 0.625000 0.250004
vt 0.625000 0.499997
vt 0.625000 0.500000
vt 0.625000 0.250000
vt 0.625000 0.750000
vt 0.625000 1.000000
vt 0.625000 1.000000
vt 0.625000 0.750000
vt 0.625000 0.250004
vt 0.625000 0.499996
vt 0.625000 0.500000
vt 0.625000 0.250000
vt 0.625000 0.750000
vt 0.625000 1.000000
vt 0.625000 1.000000
vt 0.625000 0.750000
vt 0.625000 0.750006
vt 0.625000 0.999992
vt 0.625000 0.999994
vt 0.625000 0.750007
vn 0.000000 0.000000 1.000000
vn 0.000000 0.000000 1.000000
vn 0.000000 0.000000 1.000000
vn 0.000000 0.000000 1.000000
vn 0.000000 1.000000 0.000000
vn 0.000000 1.000000 0.000000
vn 0.000000 1.000000 0.000000
vn 0.000000 1.000000 0.000000
vn 0.000000 0.000000 -1.000000
vn 0.000000 0.000000 -1.000000
vn 0.000000 0.000000 -1.000000
vn 0.000000 0.000000 -1.000000
vn 0.000000 -1.000000 0.000000
vn 0.000000 -1.000000 0.000000
vn 0.000000 -1.000000 0.000000
vn 0.000000 -1.000000 0.000000
vn 1.000000 0.000000 0.000000
vn 1.000000 0.000000 0.000000
vn 1.000000 0.000000 0.000000
vn 1.000000 0.000000 0.000000
vn -1.000000 0.000000 0.000000
vn -1.000000 0.000000 0.000000
vn -1.000000 0.000000 0.000000
vn -1.000000 0.000000 0.000000
vn 0.000000 0.000000 1.000000
vn 0.000000 0.000000 1.000000
vn 1.000000 0.000000 0.000000
vn 1.000000 0.000000 0.000000
vn 1.000000 0.000000 0.000000
vn 1.000000 0.000000 0.000000
vn 0.000000 0.000000 -1.000000
vn 0.000000 0.000000 -1.000000
vn -1.000000 0.000000 0.000000
vn -1.000000 0.000000 0.000000
vn 0.000000 0.000000 -1.000000
vn 0.000000 0.000000 -1.000000
vn 1.000000 0.000000 0.000000
vn 1.000000 0.000000 0.000000
vn 1.000000 0.000000 0.000000
vn 1.000000 0.000000 0.000000
vn 0.000000 0.000000 1.000000
vn 0.000000 0.000000 1.000000
vn -1.000000 0.000000 0.000000
vn -1.000000 0.000000 0.000000
vn 0.000000 -1.000000 0.000000
vn 0.000000 -1.000000 0.000000
vn 0.000000 -1.000000 0.000000
vn 0.000000 -1.000000 0.000000
vn 0.000000 0.000000 -1.000000
vn 0.000000 0.000000 -1.000000
vn 0.000000 1.000000 0.000000
vn 0.000000 1.000000 0.000000
vn 0.000000 0.000000 1.000000
vn 0.000000 0.000000 1.000000
vn 0.000000 1.000000 0.000000
vn 0.000000 1.000000 0.000000
vn 0.000000 1.000000 0.000000
vn 0.000000 1.000000 0.000000
vn 0.000000 0.000000 1.000000
vn 0.000000 0.000000 1.000000
vn 0.000000 -1.000000 0.000000
vn 0.000000 -1.000000 0.000000
vn 0.000000 0.000000 -1.000000
vn 0.000000 0.000000 -1.000000
vn 0.000000 -1.000000 0.000000
vn 0.000000 -1.000000 0.000000
vn 0.000000 -1.000000 0.000000
vn 0.000000 -1.000000 0.000000
vn 0.000000 0.000000 -1.000000
vn 0.000000 0.000000 -1.000000
vn 0.000000 1.000000 0.000000
vn 0.000000 1.000000 0.000000
vn 0.000000 0.000000 1.000000
vn 0.000000 0.000000 1.000000
vn 0.000000 0.000000 1.000000
vn 0.000000 0.000000 1.000000
vn 0.000000 -1.000000 0.000000
vn 0.000000 -1.000000 0.000000
vn 0.000000 0.000000 -1.000000
vn 0.000000 0.000000 -1.000000
vn -1.000000 0.000000 0.000000
vn -1.000000 0.000000 0.000000
vn -1.000000 0.000000 0.000000
vn -1.000000 0.000000 0.000000
vn 0.000000 0.000000 1.000000
vn 0.000000 0.000000 1.000000
vn 1.000000 0.000000 0.000000
vn 1.000000 0.000000 0.000000
vn 0.000000 0.000000 -1.000000
vn 0.000000 0.000000 -1.000000
s 1
g pCube1
usemtl initialShadingGroup
f 1/1/1 2/2/2 3/3/3
f 3/3/3 2/2/2 4/4/4
s 2
f 9/15/5 10/16/6 12/18/7
f 12/18/7 10/16/6 11/17/8
s 3
f 5/5/9 6/6/10 7/7/11
f 7/7/11 6/6/10 8/8/12
s 4
f 13/19/13 14/20/14 16/22/15
f 16/22/15 14/20/14 15/21/16
s 5
f 2/2/17 8/11/18 4/4/19
f 4/4/19 8/11/18 6/12/20
s 6
f 7/13/21 1/1/22 5/14/23
f 5/14/23 1/1/22 3/3/24
s 1
f 3/3/3 4/4/4 9/15/25
f 9/15/25 4/4/4 10/16/26
s 7
f 25/31/27 26/32/28 28/34/29
f 28/34/29 26/32/28 27/33/30
s 3
f 6/6/10 5/5/9 11/17/31
f 11/17/31 5/5/9 12/18/32
s 6
f 5/5/23 3/3/24 12/18/33
f 12/18/33 3/3/24 9/15/34
s 3
f 7/7/11 8/8/12 13/19/35
f 13/19/35 8/8/12 14/20/36
s 8
f 29/35/37 30/36/38 32/38/39
f 32/38/39 30/36/38 31/37/40
s 1
f 2/10/2 1/9/1 15/21/41
f 15/21/41 1/9/1 16/22/42
s 6
f 1/9/22 7/7/21 16/22/43
f 16/22/43 7/7/21 13/19/44
s 9
f 4/4/45 6/6/46 17/23/47
f 17/23/47 6/6/46 18/24/48
s 3
f 6/6/10 11/17/31 18/24/49
f 18/24/49 11/17/31 19/25/50
s 2
f 11/17/8 10/16/6 19/25/51
f 19/25/51 10/16/6 20/26/52
s 1
f 10/16/26 4/4/4 20/26/53
f 20/26/53 4/4/4 17/23/54
s 10
f 8/8/55 2/10/56 21/27/57
f 21/27/57 2/10/56 22/28/58
s 1
f 2/10/2 15/21/41 22/28/59
f 22/28/59 15/21/41 23/29/60
s 4
f 15/21/16 14/20/14 23/29/61
f 23/29/61 14/20/14 24/30/62
s 3
f 14/20/36 8/8/12 24/30/63
f 24/30/63 8/8/12 21/27/64
s 11
f 17/23/65 18/24/66 25/31/67
f 25/31/67 18/24/66 26/32/68
s 3
f 18/24/49 19/25/50 26/32/69
f 26/32/69 19/25/50 27/33/70
s 2
f 19/25/51 20/26/52 27/33/71
f 27/33/71 20/26/52 28/34/72
s 1
f 20/26/53 17/23/54 28/34/73
f 28/34/73 17/23/54 25/31/74
f 22/28/59 23/29/60 30/36/75
f 30/36/75 23/29/60 31/37/76
s 4
f 23/29/61 24/30/62 31/37/77
f 31/37/77 24/30/62 32/38/78
s 3
f 24/30/63 21/27/64 32/38/79
f 32/38/79 21/27/64 29/35/80
s 12
f 21/27/81 22/28/82 18/39/83
f 18/39/83 22/28/82 17/40/84
s 1
f 22/28/59 30/36/75 17/40/85
f 17/40/85 30/36/75 25/41/86
s 8
f 30/36/38 29/35/37 25/41/87
f 25/41/87 29/35/37 26/42/88
s 3
f 29/35/80 21/27/64 26/42/89
f 26/42/89 21/27/64 18/39/90
